<svg width="18" height="19" viewBox="0 0 18 19" fill="none" xmlns="http://www.w3.org/2000/svg">
<path d="M12.4668 10.3333C13.1094 10.3333 13.6749 9.94818 13.9662 9.36576L17.0337 3.26909C17.3507 2.64909 16.9394 1.87879 16.2882 1.87879H3.60723L2.80182 0H0V1.87879H1.71365L4.79822 9.00879L3.64151 11.3009C3.01602 12.5597 3.83857 14.0909 5.14095 14.0909H15.4228V12.2121H5.14095L6.08346 10.3333H12.4668ZM4.42122 3.75758H14.8316L12.4668 8.45454H6.45189L4.42122 3.75758ZM5.14095 15.0303C4.19844 15.0303 3.43587 15.8758 3.43587 16.9091C3.43587 17.9424 4.19844 18.7879 5.14095 18.7879C6.08346 18.7879 6.8546 17.9424 6.8546 16.9091C6.8546 15.8758 6.08346 15.0303 5.14095 15.0303ZM13.7092 15.0303C12.7667 15.0303 12.0041 15.8758 12.0041 16.9091C12.0041 17.9424 12.7667 18.7879 13.7092 18.7879C14.6517 18.7879 15.4228 17.9424 15.4228 16.9091C15.4228 15.8758 14.6517 15.0303 13.7092 15.0303Z" fill="#4A5BCF"/>
</svg>
